# xmcd
#
# Track frame offsets: 
#        150
#        13835
#        26559
#        39419
#        51323
#        67930
#        85138
#        100509
#        113052
#        127144
#        138846
#        151760
#        165388
#        182227
#
# Disc length: 2592 seconds
#
# Revision: 0
# Processed by: cddbd v1.5.2PL0 Copyright (c) Steve Scherf et al.
# Submitted via: ExactAudioCopy v0.95b4
#
DISCID=ab0a1e0e
DTITLE=Trumpet and Orchestra - Boleros que o tempo não apaga
DYEAR=1900
DGENRE=Latin
TTITLE0=Aqueles ojos verdes
TTITLE1=Solamnte una vez
TTITLE2=Que queres tu de mim
TTITLE3=Quizas, quizas, quizas
TTITLE4=Besame mucho
TTITLE5=Ansiedad
TTITLE6=La barca
TTITLE7=Historia de um amor
TTITLE8=Sabor a mi
TTITLE9=Desesperadamente
TTITLE10=Sempre no meu coraçao
TTITLE11=Angustia
TTITLE12=Dio come ti amo
TTITLE13=Perfidia
EXTD=
EXTT0=
EXTT1=
EXTT2=
EXTT3=
EXTT4=
EXTT5=
EXTT6=
EXTT7=
EXTT8=
EXTT9=
EXTT10=
EXTT11=
EXTT12=
EXTT13=
PLAYORDER=
